Nick Fury is director of S.H.I.E.L.D, an international peace keeping agency. The agency is a who's who of Marvel Super Heroes, with Iron Man, The Incredible Hulk, Thor, Captain America, Hawkeye and Black Widow. When global security is threatened by Loki and his cohorts, Nick Fury and his team will need all their powers to save the world from disaster.

Starring: Robert Downey Jr., Scarlett Johansson, Chris Hemsworth, Samuel L. Jackson, Don Cheadle, Chris Evans, Cobie Smulders, Gwyneth Paltrow
Director: Joss Whedon

 
http://www.imdb.com/title/tt0848228/


 
http://stpicz.com/6120_vlcsnap_2013_03_07_16h32m47s48_z84k.png 
http://stpicz.com/4166_vlcsnap_2013_03_07_16h27m25s157_m5fe.png 
http://stpicz.com/2350_vlcsnap_2013_03_07_16h30m16s93_beqh.png 
http://stpicz.com/1876_vlcsnap_2013_03_07_16h13m13s91_cfs8.png 
http://stpicz.com/3830_vlcsnap_2013_03_07_16h21m32s216_f7a3.png 
http://stpicz.com/8561_vlcsnap_2013_03_07_16h02m42s251_i50i.png 
http://stpicz.com/5216_vlcsnap_2013_03_07_16h20m51s51_ff32.png 
http://stpicz.com/3944_vlcsnap_2013_03_07_16h07m34s24_vqfe.png 
http://stpicz.com/9927_vlcsnap_2013_03_07_16h30m09s239_i9gr.png



General
Unique ID: 216743615402505731183698301531990937619 (0xA30F4D4A5B5288E3A07749A72CCA5013)
Complete name: D:Avengers Assemble (2012) 720p MKV x264 DTS BRrip [Pioneer].mkv
Format: Matroska
Format version: Version 2
File size: 4.55 GiB
Duration: 2h 22mn
Overall bit rate: 4 558 Kbps
Encoded date: UTC 2013-03-06 21:56:26
Writing application: mkvmerge v5.5.0 ('Healer') built on Apr  6 2012 21:43:24
Writing library: libebml v1.2.3 + libmatroska v1.3.0

Video
ID: 1
Format: AVC
Format/Info: Advanced Video Codec
Format profile: High@L4.0
Format settings, CABAC: Yes
Format settings, ReFrames: 5 frames
Codec ID: V_MPEG4/ISO/AVC
Duration: 2h 22mn
Bit rate: 2 959 Kbps
Width: 1 280 pixels
Height: 720 pixels
Display aspect ratio: 16:9
Frame rate mode: Constant
Frame rate: 23.976 fps
Color space: YUV
Chroma subsampling: 4:2:0
Bit depth: 8 bits
Scan type: Progressive
Bits/(Pixel*Frame): 0.134
Stream size: 2.95 GiB (65%)
Writing library: x264 core 120
Language: English
Default: Yes
Forced: No
Color primaries: BT.709
Transfer characteristics: BT.709
Matrix coefficients: BT.709

Audio
ID: 2
Format: DTS
Format/Info: Digital Theater Systems
Mode: 16
Format settings, Endianness: Big
Codec ID: A_DTS
Duration: 2h 22mn
Bit rate mode: Constant
Bit rate: 1 509 Kbps
Channel(s): 6 channels
Channel positions: Front: L C R, Side: L R, LFE
Sampling rate: 48.0 KHz
Bit depth: 24 bits
Compression mode: Lossy
Stream size: 1.51 GiB (33%)
Default: Yes
Forced: No

Text #1
ID: 3
Format: UTF-8
Codec ID: S_TEXT/UTF8
Codec ID/Info: UTF-8 Plain Text
Title: English
Language: English
Default: Yes
Forced: No

Text #2
ID: 4
Format: UTF-8
Codec ID: S_TEXT/UTF8
Codec ID/Info: UTF-8 Plain Text
Title: English - Forced
Language: English
Default: No
Forced: No

Text #3
ID: 5
Format: UTF-8
Codec ID: S_TEXT/UTF8
Codec ID/Info: UTF-8 Plain Text
Language: Dutch
Default: No
Forced: No

Text #4
ID: 6
Format: UTF-8
Codec ID: S_TEXT/UTF8
Codec ID/Info: UTF-8 Plain Text
Language: Romanian
Default: No
Forced: No

Text #5
ID: 7
Format: UTF-8
Codec ID: S_TEXT/UTF8
Codec ID/Info: UTF-8 Plain Text
Language: French
Default: No
Forced: No

Text #6
ID: 8
Format: UTF-8
Codec ID: S_TEXT/UTF8
Codec ID/Info: UTF-8 Plain Text
Language: Greek
Default: No
Forced: No

Text #7
ID: 9
Format: UTF-8
Codec ID: S_TEXT/UTF8
Codec ID/Info: UTF-8 Plain Text
Language: Italian
Default: No
Forced: No

Text #8
ID: 10
Format: UTF-8
Codec ID: S_TEXT/UTF8
Codec ID/Info: UTF-8 Plain Text
Language: Swedish
Default: No
Forced: No
